<svg width="48" height="48" viewBox="0 0 48 48" fill="none" xmlns="http://www.w3.org/2000/svg" xmlns:xlink="http://www.w3.org/1999/xlink">
<path d="M17.5,20C17.5,18.276 18.185,16.623 19.404,15.404C20.623,14.185 22.276,13.5 24,13.5C25.724,13.5 27.377,14.185 28.596,15.404C29.815,16.623 30.5,18.276 30.5,20C30.5,21.724 29.815,23.377 28.596,24.596C27.377,25.815 25.724,26.5 24,26.5C22.276,26.5 20.623,25.815 19.404,24.596C18.185,23.377 17.5,21.724 17.5,20Z" fill="#2F778D"/>
<path d="M7.548,17.754C7.88,13.733 9.711,9.984 12.679,7.251C15.647,4.518 19.534,3 23.568,3L24.432,3C28.467,3 32.353,4.518 35.321,7.251C38.289,9.984 40.12,13.733 40.452,17.754C40.823,22.243 39.437,26.701 36.586,30.188L27,41.912C26.637,42.357 26.179,42.715 25.66,42.961C25.141,43.207 24.574,43.335 24,43.335C23.426,43.335 22.859,43.207 22.34,42.961C21.821,42.715 21.363,42.357 21,41.912L11.416,30.188C8.565,26.701 7.178,22.243 7.548,17.754ZM24,10.5C21.48,10.5 19.064,11.501 17.282,13.282C15.501,15.064 14.5,17.48 14.5,20C14.5,22.52 15.501,24.936 17.282,26.718C19.064,28.499 21.48,29.5 24,29.5C26.52,29.5 28.936,28.499 30.718,26.718C32.499,24.936 33.5,22.52 33.5,20C33.5,17.48 32.499,15.064 30.718,13.282C28.936,11.501 26.52,10.5 24,10.5Z" clip-rule="evenodd" fill-rule="evenodd" fill="#2F778D"/>
</svg>
