<svg width="294" height="294" viewBox="0 0 294 294" fill="none" xmlns="http://www.w3.org/2000/svg" xmlns:xlink="http://www.w3.org/1999/xlink">
<path d="M4.25,126.252C1.489,126.252 -0.75,128.491 -0.75,131.252C-0.75,134.014 1.489,136.252 4.25,136.252L4.25,126.252ZM98.75,136.252C101.511,136.252 103.75,134.014 103.75,131.252C103.75,128.491 101.511,126.252 98.75,126.252L98.75,136.252ZM19.997,68.247L19.997,63.247L19.995,63.247L19.997,68.247ZM98.75,68.247L103.75,68.247C103.75,65.486 101.511,63.247 98.75,63.247L98.75,68.247ZM98.75,225.752L98.75,230.752C101.511,230.752 103.75,228.514 103.75,225.752L98.75,225.752ZM19.997,225.752L19.997,220.752L19.997,220.752L19.997,225.752ZM4.25,209.997L9.25,210L9.25,209.997L4.25,209.997ZM4.25,84.002L9.25,84.002L9.25,84.002L4.25,84.002ZM165.516,143.714C163.701,141.632 160.542,141.417 158.461,143.232C156.38,145.047 156.164,148.205 157.979,150.286L165.516,143.714ZM178.916,166.686L175.148,169.973C176.135,171.104 177.577,171.732 179.078,171.684C180.578,171.635 181.977,170.915 182.889,169.722L178.916,166.686ZM212.978,130.35C214.654,128.156 214.236,125.018 212.042,123.341C209.846,121.664 206.71,122.084 205.032,124.278L212.978,130.35ZM4.25,136.252L98.75,136.252L98.75,126.252L4.25,126.252L4.25,136.252ZM19.997,73.247L98.75,73.247L98.75,63.247L19.997,63.247L19.997,73.247ZM93.75,68.247L93.75,225.752L103.75,225.752L103.75,68.247L93.75,68.247ZM98.75,220.752L19.997,220.752L19.997,230.752L98.75,230.752L98.75,220.752ZM19.997,220.752C18.586,220.752 17.188,220.474 15.883,219.934L12.055,229.172C14.573,230.215 17.272,230.752 19.997,230.752L19.997,220.752ZM15.883,219.934C14.579,219.393 13.394,218.601 12.396,217.603L5.323,224.672C7.25,226.6 9.538,228.129 12.055,229.172L15.883,219.934ZM12.396,217.603C11.398,216.604 10.606,215.419 10.067,214.114L0.826,217.938C1.869,220.456 3.397,222.744 5.323,224.672L12.396,217.603ZM10.067,214.114C9.527,212.81 9.249,211.412 9.25,210L-0.75,209.995C-0.751,212.72 -0.216,215.419 0.826,217.938L10.067,214.114ZM9.25,209.997L9.25,84.002L-0.75,84.002L-0.75,209.997L9.25,209.997ZM9.25,84.002C9.25,81.151 10.382,78.416 12.398,76.399L5.325,69.33C1.435,73.222 -0.75,78.5 -0.75,84.002L9.25,84.002ZM12.398,76.399C14.414,74.383 17.148,73.249 20,73.247L19.995,63.247C14.492,63.25 9.216,65.438 5.325,69.33L12.398,76.399ZM157.979,150.286L175.148,169.973L182.684,163.4L165.516,143.714L157.979,150.286ZM182.889,169.722L212.978,130.35L205.032,124.278L174.943,163.65L182.889,169.722Z" fill="#344054"/>
<path d="M287.75,273.002L282.75,273.002L287.75,273.002ZM287.75,20.997L282.75,20.997L287.75,20.997ZM272.003,5.25L272.003,0.25L272.003,5.25ZM114.497,5.25L114.497,0.25L114.497,5.25ZM98.75,20.997L93.75,20.997L98.75,20.997ZM114.497,288.75L114.497,283.75L114.497,288.75ZM272.003,288.75L272.003,283.75L272.003,288.75ZM169.625,36.753L164.774,37.965C165.331,40.191 167.331,41.753 169.625,41.753L169.625,36.753ZM216.875,36.753L216.875,41.753C219.169,41.753 221.169,40.191 221.726,37.965L216.875,36.753ZM224.753,5.25L229.603,6.463C229.977,4.969 229.641,3.387 228.694,2.173C227.746,0.959 226.292,0.25 224.753,0.25L224.753,5.25ZM161.747,5.25L161.747,0.25C160.208,0.25 158.754,0.959 157.806,2.173C156.859,3.387 156.523,4.969 156.897,6.463L161.747,5.25ZM292.75,273.002L292.75,20.997L282.75,20.997L282.75,273.002L292.75,273.002ZM292.75,20.997C292.75,15.495 290.564,10.218 286.673,6.327L279.602,13.398C281.618,15.413 282.75,18.147 282.75,20.997L292.75,20.997ZM286.673,6.327C282.782,2.436 277.505,0.25 272.003,0.25L272.003,10.25C274.853,10.25 277.587,11.382 279.602,13.398L286.673,6.327ZM272.003,0.25L114.497,0.25L114.497,10.25L272.003,10.25L272.003,0.25ZM114.497,0.25C108.995,0.25 103.718,2.436 99.827,6.327L106.898,13.398C108.913,11.382 111.647,10.25 114.497,10.25L114.497,0.25ZM99.827,6.327C95.936,10.218 93.75,15.495 93.75,20.997L103.75,20.997C103.75,18.147 104.882,15.413 106.898,13.398L99.827,6.327ZM93.75,20.997L93.75,273.002L103.75,273.002L103.75,20.997L93.75,20.997ZM93.75,273.002C93.75,278.506 95.936,283.782 99.827,287.674L106.898,280.602C104.882,278.586 103.75,275.852 103.75,273.002L93.75,273.002ZM99.827,287.674C103.718,291.564 108.995,293.75 114.497,293.75L114.497,283.75C111.647,283.75 108.913,282.618 106.898,280.602L99.827,287.674ZM114.497,293.75L272.003,293.75L272.003,283.75L114.497,283.75L114.497,293.75ZM272.003,293.75C277.505,293.75 282.782,291.564 286.673,287.674L279.602,280.602C277.587,282.618 274.853,283.75 272.003,283.75L272.003,293.75ZM286.673,287.674C290.564,283.782 292.75,278.506 292.75,273.002L282.75,273.002C282.75,275.852 281.618,278.586 279.602,280.602L286.673,287.674ZM169.625,41.753L216.875,41.753L216.875,31.753L169.625,31.753L169.625,41.753ZM221.726,37.965L229.603,6.463L219.902,4.037L212.024,35.54L221.726,37.965ZM224.753,0.25L161.747,0.25L161.747,10.25L224.753,10.25L224.753,0.25ZM156.897,6.463L164.774,37.965L174.476,35.54L166.598,4.037L156.897,6.463Z" fill="#306CFE"/>
</svg>
