<svg width="44" height="44" viewBox="0 0 44 44" fill="none" xmlns="http://www.w3.org/2000/svg" xmlns:xlink="http://www.w3.org/1999/xlink">
<path d="M0.5,22C0.5,33.874 10.126,43.5 22,43.5L22,40.5C11.782,40.5 3.5,32.218 3.5,22L0.5,22ZM22,43.5C33.874,43.5 43.5,33.874 43.5,22L40.5,22C40.5,32.218 32.218,40.5 22,40.5L22,43.5ZM43.5,22C43.5,10.126 33.874,0.5 22,0.5L22,3.5C32.218,3.5 40.5,11.782 40.5,22L43.5,22ZM22,0.5C10.126,0.5 0.5,10.126 0.5,22L3.5,22C3.5,11.782 11.782,3.5 22,3.5L22,0.5Z" fill="#FFFFFF"/>
<path d="M25.194,1.193C24.693,0.533 23.752,0.404 23.093,0.905C22.433,1.406 22.304,2.347 22.805,3.007L25.194,1.193ZM22.805,40.993C22.304,41.652 22.433,42.593 23.093,43.095C23.752,43.596 24.693,43.467 25.194,42.807L22.805,40.993ZM18.805,42.807C19.306,43.467 20.247,43.596 20.907,43.095C21.567,42.593 21.695,41.652 21.194,40.993L18.805,42.807ZM21.194,3.007C21.695,2.347 21.567,1.406 20.907,0.905C20.247,0.404 19.306,0.533 18.805,1.193L21.194,3.007ZM3.26,27.5C2.431,27.5 1.76,28.172 1.76,29C1.76,29.828 2.431,30.5 3.26,30.5L3.26,27.5ZM40.74,30.5C41.568,30.5 42.24,29.828 42.24,29C42.24,28.172 41.568,27.5 40.74,27.5L40.74,30.5ZM3.26,13.5C2.431,13.5 1.76,14.172 1.76,15C1.76,15.828 2.431,16.5 3.26,16.5L3.26,13.5ZM40.74,16.5C41.568,16.5 42.24,15.828 42.24,15C42.24,14.172 41.568,13.5 40.74,13.5L40.74,16.5ZM24,2.1C22.805,3.007 22.805,3.007 22.805,3.006C22.805,3.006 22.804,3.006 22.804,3.006C22.804,3.006 22.804,3.005 22.804,3.005C22.804,3.005 22.804,3.005 22.804,3.006C22.806,3.008 22.808,3.011 22.812,3.016C22.82,3.027 22.833,3.045 22.852,3.07C22.888,3.121 22.945,3.202 23.02,3.311C23.17,3.529 23.389,3.861 23.655,4.299C24.186,5.177 24.903,6.478 25.623,8.144C27.062,11.479 28.5,16.25 28.5,22L31.5,22C31.5,15.75 29.938,10.571 28.377,6.956C27.596,5.147 26.813,3.723 26.22,2.744C25.923,2.255 25.674,1.876 25.495,1.615C25.406,1.485 25.334,1.384 25.283,1.313C25.257,1.278 25.237,1.25 25.222,1.23C25.215,1.22 25.209,1.212 25.204,1.205C25.202,1.202 25.2,1.2 25.198,1.198C25.197,1.197 25.197,1.196 25.196,1.195C25.196,1.194 25.195,1.194 25.195,1.194C25.195,1.193 25.194,1.193 24,2.1ZM28.5,22C28.5,27.75 27.062,32.521 25.623,35.856C24.903,37.522 24.186,38.823 23.655,39.701C23.389,40.139 23.17,40.471 23.02,40.689C22.945,40.798 22.888,40.879 22.852,40.93C22.833,40.955 22.82,40.973 22.812,40.984C22.808,40.989 22.806,40.992 22.804,40.994C22.804,40.995 22.804,40.995 22.804,40.995C22.804,40.995 22.804,40.994 22.804,40.994C22.804,40.994 22.805,40.994 22.805,40.994C22.805,40.993 22.805,40.993 24,41.9C25.194,42.807 25.195,42.807 25.195,42.806C25.195,42.806 25.196,42.806 25.196,42.805C25.197,42.804 25.197,42.803 25.198,42.802C25.2,42.8 25.202,42.798 25.204,42.795C25.209,42.788 25.215,42.78 25.222,42.77C25.237,42.75 25.257,42.722 25.283,42.687C25.334,42.616 25.406,42.515 25.495,42.385C25.674,42.124 25.923,41.745 26.22,41.256C26.813,40.277 27.596,38.853 28.377,37.044C29.938,33.429 31.5,28.25 31.5,22L28.5,22ZM20,41.9C21.194,40.993 21.195,40.993 21.195,40.994C21.195,40.994 21.195,40.994 21.195,40.994C21.196,40.994 21.196,40.995 21.196,40.995C21.196,40.995 21.196,40.995 21.195,40.994C21.194,40.992 21.191,40.989 21.188,40.984C21.18,40.973 21.166,40.955 21.148,40.93C21.111,40.879 21.054,40.798 20.979,40.689C20.83,40.471 20.611,40.139 20.345,39.701C19.813,38.823 19.096,37.522 18.377,35.856C16.938,32.521 15.5,27.75 15.5,22L12.5,22C12.5,28.25 14.062,33.429 15.623,37.044C16.403,38.853 17.186,40.277 17.779,41.256C18.076,41.745 18.326,42.124 18.505,42.385C18.594,42.515 18.666,42.616 18.717,42.687C18.742,42.722 18.763,42.75 18.778,42.77C18.785,42.78 18.791,42.788 18.796,42.795C18.798,42.798 18.8,42.8 18.802,42.802C18.802,42.803 18.803,42.804 18.804,42.805C18.804,42.806 18.804,42.806 18.805,42.806C18.805,42.807 18.805,42.807 20,41.9ZM15.5,22C15.5,16.25 16.938,11.479 18.377,8.144C19.096,6.478 19.813,5.177 20.345,4.299C20.611,3.861 20.83,3.529 20.979,3.311C21.054,3.202 21.111,3.121 21.148,3.07C21.166,3.045 21.18,3.027 21.188,3.016C21.191,3.011 21.194,3.008 21.195,3.006C21.196,3.005 21.196,3.005 21.196,3.005C21.196,3.005 21.196,3.006 21.195,3.006C21.195,3.006 21.195,3.006 21.195,3.006C21.195,3.007 21.194,3.007 20,2.1C18.805,1.193 18.805,1.193 18.805,1.194C18.804,1.194 18.804,1.194 18.804,1.195C18.803,1.196 18.802,1.197 18.802,1.198C18.8,1.2 18.798,1.202 18.796,1.205C18.791,1.212 18.785,1.22 18.778,1.23C18.763,1.25 18.742,1.278 18.717,1.313C18.666,1.384 18.594,1.485 18.505,1.615C18.326,1.876 18.076,2.255 17.779,2.744C17.186,3.723 16.403,5.147 15.623,6.956C14.062,10.571 12.5,15.75 12.5,22L15.5,22ZM3.26,30.5L40.74,30.5L40.74,27.5L3.26,27.5L3.26,30.5ZM3.26,16.5L40.74,16.5L40.74,13.5L3.26,13.5L3.26,16.5Z" fill="#FFFFFF"/>
</svg>
