<svg width="60" height="60" viewBox="0 0 60 60" fill="none" xmlns="http://www.w3.org/2000/svg" xmlns:xlink="http://www.w3.org/1999/xlink">
<path d="M0,1.875C0,1.378 0.198,0.901 0.549,0.549C0.901,0.198 1.378,0 1.875,0L13.125,0C13.622,0 14.099,0.198 14.451,0.549C14.802,0.901 15,1.378 15,1.875C15,2.372 14.802,2.849 14.451,3.201C14.099,3.552 13.622,3.75 13.125,3.75L3.75,3.75L3.75,13.125C3.75,13.622 3.552,14.099 3.201,14.451C2.849,14.802 2.372,15 1.875,15C1.378,15 0.901,14.802 0.549,14.451C0.198,14.099 0,13.622 0,13.125L0,1.875ZM45,1.875C45,1.378 45.198,0.901 45.549,0.549C45.901,0.198 46.378,0 46.875,0L58.125,0C58.622,0 59.099,0.198 59.451,0.549C59.802,0.901 60,1.378 60,1.875L60,13.125C60,13.622 59.802,14.099 59.451,14.451C59.099,14.802 58.622,15 58.125,15C57.628,15 57.151,14.802 56.799,14.451C56.448,14.099 56.25,13.622 56.25,13.125L56.25,3.75L46.875,3.75C46.378,3.75 45.901,3.552 45.549,3.201C45.198,2.849 45,2.372 45,1.875ZM1.875,45C2.372,45 2.849,45.198 3.201,45.549C3.552,45.901 3.75,46.378 3.75,46.875L3.75,56.25L13.125,56.25C13.622,56.25 14.099,56.448 14.451,56.799C14.802,57.151 15,57.628 15,58.125C15,58.622 14.802,59.099 14.451,59.451C14.099,59.802 13.622,60 13.125,60L1.875,60C1.378,60 0.901,59.802 0.549,59.451C0.198,59.099 0,58.622 0,58.125L0,46.875C0,46.378 0.198,45.901 0.549,45.549C0.901,45.198 1.378,45 1.875,45ZM58.125,45C58.622,45 59.099,45.198 59.451,45.549C59.802,45.901 60,46.378 60,46.875L60,58.125C60,58.622 59.802,59.099 59.451,59.451C59.099,59.802 58.622,60 58.125,60L46.875,60C46.378,60 45.901,59.802 45.549,59.451C45.198,59.099 45,58.622 45,58.125C45,57.628 45.198,57.151 45.549,56.799C45.901,56.448 46.378,56.25 46.875,56.25L56.25,56.25L56.25,46.875C56.25,46.378 56.448,45.901 56.799,45.549C57.151,45.198 57.628,45 58.125,45ZM15,15L18.75,15L18.75,18.75L15,18.75L15,15Z" fill="#2F778D"/>
<path d="M26.25,7.5L7.5,7.5L7.5,26.25L26.25,26.25L26.25,7.5ZM11.25,11.25L22.5,11.25L22.5,22.5L11.25,22.5L11.25,11.25ZM18.75,41.25L15,41.25L15,45L18.75,45L18.75,41.25Z" fill="#2F778D"/>
<path d="M26.25,33.75L7.5,33.75L7.5,52.5L26.25,52.5L26.25,33.75ZM11.25,37.5L22.5,37.5L22.5,48.75L11.25,48.75L11.25,37.5ZM41.25,15L45,15L45,18.75L41.25,18.75L41.25,15Z" fill="#2F778D"/>
<path d="M33.75,7.5L52.5,7.5L52.5,26.25L33.75,26.25L33.75,7.5ZM37.5,11.25L37.5,22.5L48.75,22.5L48.75,11.25L37.5,11.25ZM30,30L30,37.5L33.75,37.5L33.75,41.25L30,41.25L30,45L37.5,45L37.5,37.5L41.25,37.5L41.25,45L45,45L45,41.25L52.5,41.25L52.5,37.5L41.25,37.5L41.25,30L30,30ZM37.5,37.5L33.75,37.5L33.75,33.75L37.5,33.75L37.5,37.5ZM52.5,45L48.75,45L48.75,48.75L41.25,48.75L41.25,52.5L52.5,52.5L52.5,45ZM37.5,52.5L37.5,48.75L30,48.75L30,52.5L37.5,52.5Z" fill="#2F778D"/>
<rect  x="45" y="30" width="7.5" height="3.75" fill="#2F778D"/>
</svg>
