<svg width="48" height="14" viewBox="0 0 48 14" fill="none" xmlns="http://www.w3.org/2000/svg" xmlns:xlink="http://www.w3.org/1999/xlink">
<path d="M15.09,-0.709C13.769,-0.707 12.476,-0.314 11.361,0.424C10.246,1.161 9.354,2.213 8.79,3.457L3,3.457C2.204,3.457 1.441,3.787 0.879,4.373C0.316,4.959 0,5.753 0,6.582L0,6.582C0,7.411 0.316,8.206 0.879,8.792C1.441,9.378 2.204,9.707 3,9.707L8.79,9.707C9.352,10.953 10.243,12.006 11.359,12.744C12.475,13.481 13.769,13.873 15.09,13.873C16.411,13.873 17.705,13.481 18.821,12.744C19.937,12.006 20.828,10.953 21.39,9.707L45,9.707C45.796,9.707 46.559,9.378 47.121,8.792C47.684,8.206 48,7.411 48,6.582C48,5.753 47.684,4.959 47.121,4.373C46.559,3.787 45.796,3.457 45,3.457L21.4,3.457C20.835,2.212 19.942,1.159 18.825,0.421C17.708,-0.316 16.413,-0.709 15.09,-0.709L15.09,-0.709Z" fill="#2F778D"/>
</svg>
