<svg width="60" height="60" viewBox="0 0 60 60" fill="none" xmlns="http://www.w3.org/2000/svg" xmlns:xlink="http://www.w3.org/1999/xlink">
<path d="M30,59C22.333,59 15.653,56.459 9.96,51.377C4.267,46.294 1.002,39.947 0.167,32.333L7,32.333C7.778,38.111 10.348,42.889 14.71,46.667C19.072,50.444 24.169,52.333 30,52.333C36.5,52.333 42.014,50.07 46.543,45.543C51.072,41.017 53.336,35.502 53.333,29C53.331,22.498 51.068,16.984 46.543,12.46C42.019,7.936 36.504,5.671 30,5.667C26.167,5.667 22.583,6.556 19.25,8.333C15.917,10.111 13.111,12.556 10.833,15.667L20,15.667L20,22.333L0,22.333L0,2.333L6.667,2.333L6.667,10.167C9.5,6.611 12.959,3.861 17.043,1.917C21.128,-0.028 25.447,-1 30,-1C34.167,-1 38.07,-0.208 41.71,1.377C45.35,2.961 48.517,5.099 51.21,7.79C53.903,10.481 56.042,13.648 57.627,17.29C59.211,20.932 60.002,24.836 60,29C59.998,33.164 59.207,37.068 57.627,40.71C56.047,44.352 53.908,47.519 51.21,50.21C48.512,52.901 45.346,55.04 41.71,56.627C38.074,58.213 34.171,59.004 30,59ZM39.333,43L26.667,30.333L26.667,12.333L33.333,12.333L33.333,27.667L44,38.333L39.333,43Z" fill="#FFFFFF"/>
</svg>
