<svg width="60" height="62" viewBox="0 0 60 62" fill="none" xmlns="http://www.w3.org/2000/svg" xmlns:xlink="http://www.w3.org/1999/xlink">
<path d="M30,61C22.333,61 15.653,58.459 9.96,53.377C4.267,48.294 1.002,41.947 0.167,34.333L7,34.333C7.778,40.111 10.348,44.889 14.71,48.667C19.072,52.444 24.169,54.333 30,54.333C36.5,54.333 42.014,52.07 46.543,47.543C51.072,43.017 53.336,37.502 53.333,31C53.331,24.498 51.068,18.984 46.543,14.46C42.019,9.936 36.504,7.671 30,7.667C26.167,7.667 22.583,8.556 19.25,10.333C15.917,12.111 13.111,14.556 10.833,17.667L20,17.667L20,24.333L0,24.333L0,4.333L6.667,4.333L6.667,12.167C9.5,8.611 12.959,5.861 17.043,3.917C21.128,1.972 25.447,1 30,1C34.167,1 38.07,1.792 41.71,3.377C45.35,4.961 48.517,7.099 51.21,9.79C53.903,12.481 56.042,15.648 57.627,19.29C59.211,22.932 60.002,26.836 60,31C59.998,35.164 59.207,39.068 57.627,42.71C56.047,46.352 53.908,49.519 51.21,52.21C48.512,54.901 45.346,57.04 41.71,58.627C38.074,60.213 34.171,61.004 30,61ZM39.333,45L26.667,32.333L26.667,14.333L33.333,14.333L33.333,29.667L44,40.333L39.333,45Z" fill="#FFFFFF"/>
</svg>
