<svg width="46" height="52" viewBox="0 0 46 52" fill="none" xmlns="http://www.w3.org/2000/svg" xmlns:xlink="http://www.w3.org/1999/xlink">
<path d="M28,24.75C28.821,24.75 29.633,24.588 30.392,24.274C31.15,23.96 31.839,23.5 32.419,22.919C33,22.339 33.46,21.65 33.774,20.892C34.088,20.133 34.25,19.321 34.25,18.5C34.25,16.842 33.592,15.253 32.419,14.081C31.247,12.908 29.658,12.25 28,12.25C26.342,12.25 24.753,12.908 23.581,14.081C22.408,15.253 21.75,16.842 21.75,18.5C21.75,19.321 21.912,20.133 22.226,20.892C22.54,21.65 23,22.339 23.581,22.919C24.753,24.092 26.342,24.75 28,24.75ZM28,1C37.65,1 45.5,8.825 45.5,18.5C45.5,31.625 28,51 28,51C28,51 10.5,31.625 10.5,18.5C10.5,13.859 12.344,9.408 15.626,6.126C18.908,2.844 23.359,1 28,1ZM5.5,18.5C5.5,29.75 18.2,45.15 20.5,48.025L18,51C18,51 0.5,31.625 0.5,18.5C0.5,10.575 5.775,3.875 13,1.725C8.4,5.85 5.5,11.825 5.5,18.5Z" fill="#2F778D"/>
</svg>
