<svg width="140" height="80" viewBox="0 0 140 80" fill="none" xmlns="http://www.w3.org/2000/svg" xmlns:xlink="http://www.w3.org/1999/xlink">
<path d="M135.715,23.333L119.344,23.333L114.794,14.667C110.119,5.756 98.96,0 86.362,0L51.636,0C39.041,0 27.88,5.756 23.201,14.667L18.651,23.333L2.283,23.333C0.147,23.333 -1.419,24.862 -0.9,26.44L0.741,31.44C1.104,32.552 2.417,33.333 3.924,33.333L9.412,33.333C5.739,35.777 3.374,39.329 3.374,43.333L3.374,53.333C3.374,56.692 5.058,59.723 7.749,62.069L7.749,73.333C7.749,77.015 11.667,80 16.499,80L25.249,80C30.081,80 33.999,77.015 33.999,73.333L33.999,66.667L103.999,66.667L103.999,73.333C103.999,77.015 107.918,80 112.749,80L121.499,80C126.331,80 130.249,77.015 130.249,73.333L130.249,62.069C132.94,59.725 134.624,56.694 134.624,53.333L134.624,43.333C134.624,39.329 132.259,35.777 128.589,33.333L134.077,33.333C135.584,33.333 136.896,32.552 137.26,31.44L138.901,26.44C139.418,24.862 137.851,23.333 135.715,23.333ZM39.449,19.619C41.442,15.823 46.268,13.333 51.636,13.333L86.362,13.333C91.73,13.333 96.556,15.823 98.55,19.619L103.999,30L33.999,30L39.449,19.619ZM25.249,53.292C19.999,53.292 16.499,50.633 16.499,46.646C16.499,42.658 19.999,40 25.249,40C30.499,40 38.374,45.981 38.374,49.969C38.374,53.956 30.499,53.292 25.249,53.292ZM112.749,53.292C107.499,53.292 99.624,53.956 99.624,49.969C99.624,45.981 107.499,40 112.749,40C117.999,40 121.499,42.658 121.499,46.646C121.499,50.633 117.999,53.292 112.749,53.292L112.749,53.292Z" fill="#2F778D"/>
</svg>
