<svg width="62" height="60" viewBox="0 0 62 60" fill="none" xmlns="http://www.w3.org/2000/svg" xmlns:xlink="http://www.w3.org/1999/xlink">
<path d="M35.615,4.615C35.615,2.063 33.553,0 31,0C28.447,0 26.385,2.063 26.385,4.615L26.385,25.385L5.615,25.385C3.063,25.385 1,27.447 1,30C1,32.553 3.063,34.615 5.615,34.615L26.385,34.615L26.385,55.385C26.385,57.938 28.447,60 31,60C33.553,60 35.615,57.938 35.615,55.385L35.615,34.615L56.385,34.615C58.938,34.615 61,32.553 61,30C61,27.447 58.938,25.385 56.385,25.385L35.615,25.385L35.615,4.615Z" fill="#FDBB11"/>
</svg>
