<svg width="48" height="16" viewBox="0 0 48 16" fill="none" xmlns="http://www.w3.org/2000/svg" xmlns:xlink="http://www.w3.org/1999/xlink">
<path d="M32.91,0.708C31.589,0.711 30.295,1.104 29.18,1.841C28.064,2.579 27.173,3.631 26.608,4.875L3,4.875C2.204,4.875 1.441,5.204 0.879,5.79C0.316,6.376 0,7.171 0,8L0,8C0,8.829 0.316,9.624 0.879,10.21C1.441,10.796 2.204,11.125 3,11.125L26.6,11.125C27.162,12.371 28.053,13.424 29.169,14.161C30.285,14.899 31.579,15.291 32.9,15.291C34.221,15.291 35.515,14.899 36.631,14.161C37.747,13.424 38.638,12.371 39.2,11.125L45,11.125C45.796,11.125 46.559,10.796 47.121,10.21C47.684,9.624 48,8.829 48,8C48,7.171 47.684,6.376 47.121,5.79C46.559,5.204 45.796,4.875 45,4.875L39.21,4.875C38.646,3.631 37.754,2.579 36.639,1.842C35.524,1.104 34.231,0.711 32.91,0.708L32.91,0.708Z" fill="#2F778D"/>
</svg>
