<svg width="140" height="70" viewBox="0 0 140 70" fill="none" xmlns="http://www.w3.org/2000/svg" xmlns:xlink="http://www.w3.org/1999/xlink">
<path d="M111.111,23.334C107.53,23.322 104.105,23.872 100.953,24.882L83.961,2.068C83.49,1.435 82.833,0.914 82.052,0.552C81.272,0.19 80.393,0 79.5,0L65.5,0C63.567,0 62,1.306 62,2.917L62,5.833C62,7.444 63.567,8.75 65.5,8.75L76.58,8.75L79.838,13.125L55,13.125L55,10.208C55,8.597 53.434,7.292 51.5,7.292L32.369,7.292C29.429,7.292 26.949,9.297 27.002,11.746C27.052,14.124 29.381,16.042 32.25,16.042L42.909,16.042L36.474,24.704C33.536,23.824 30.37,23.34 27.07,23.333C11.708,23.302 -0.91,33.726 -1,46.527C-1.09,59.478 11.481,70 27,70C40.047,70 51.01,62.564 54.118,52.5L65.5,52.5C66.395,52.5 67.274,52.31 68.055,51.947C68.836,51.584 69.494,51.061 69.964,50.428L88.768,25.114L92.036,29.502C86.468,33.776 82.983,39.907 83,46.717C83.032,59.264 95.666,69.877 110.722,69.999C126.167,70.124 138.762,59.826 138.997,47.031C139.234,34.099 126.632,23.384 111.111,23.334L111.111,23.334ZM39.852,36.781C41.979,38.701 43.499,41.095 44.148,43.75L34.675,43.75L39.852,36.781ZM27,61.25C17.351,61.25 9.5,54.708 9.5,46.667C9.5,38.625 17.351,32.083 27,32.083C28.284,32.083 29.535,32.202 30.741,32.422L20.787,45.822C18.625,48.731 21.14,52.5 25.25,52.5L43.035,52.5C40.329,57.645 34.162,61.25 27,61.25ZM62.576,43.75L54.783,43.75C53.917,37.961 50.505,32.832 45.512,29.162L50.925,21.875L78.826,21.875L62.576,43.75ZM110.057,61.229C101.08,60.835 93.859,54.723 93.514,47.237C93.336,43.387 94.965,39.851 97.743,37.163L107.463,50.213C108.482,51.582 110.64,52.002 112.282,51.153L115.256,49.615C116.898,48.765 117.403,46.967 116.384,45.599L106.657,32.539C108.076,32.236 109.535,32.083 111,32.084C120.65,32.084 128.5,38.626 128.5,46.667C128.5,54.968 120.133,61.672 110.057,61.229L110.057,61.229Z" fill="#2F778D"/>
</svg>
