<svg width="62" height="48" viewBox="0 0 62 48" fill="none" xmlns="http://www.w3.org/2000/svg" xmlns:xlink="http://www.w3.org/1999/xlink">
<path d="M14.75,12.75C14.75,11.765 14.944,10.79 15.321,9.88C15.698,8.97 16.25,8.143 16.947,7.447C17.643,6.75 18.47,6.198 19.38,5.821C20.29,5.444 21.265,5.25 22.25,5.25C23.235,5.25 24.21,5.444 25.12,5.821C26.03,6.198 26.857,6.75 27.553,7.447C28.25,8.143 28.802,8.97 29.179,9.88C29.556,10.79 29.75,11.765 29.75,12.75C29.75,14.739 28.96,16.647 27.553,18.053C26.147,19.46 24.239,20.25 22.25,20.25C20.261,20.25 18.353,19.46 16.947,18.053C15.54,16.647 14.75,14.739 14.75,12.75ZM22.25,0.25C18.935,0.25 15.755,1.567 13.411,3.911C11.067,6.255 9.75,9.435 9.75,12.75C9.75,16.065 11.067,19.245 13.411,21.589C15.755,23.933 18.935,25.25 22.25,25.25C25.565,25.25 28.745,23.933 31.089,21.589C33.433,19.245 34.75,16.065 34.75,12.75C34.75,9.435 33.433,6.255 31.089,3.911C28.745,1.567 25.565,0.25 22.25,0.25ZM39.75,0.25L37.25,0.25L37.25,5.25L39.75,5.25C40.735,5.25 41.71,5.444 42.62,5.821C43.53,6.198 44.357,6.75 45.053,7.447C45.75,8.143 46.302,8.97 46.679,9.88C47.056,10.79 47.25,11.765 47.25,12.75C47.25,13.735 47.056,14.71 46.679,15.62C46.302,16.53 45.75,17.357 45.053,18.053C44.357,18.75 43.53,19.302 42.62,19.679C41.71,20.056 40.735,20.25 39.75,20.25L37.25,20.25L37.25,25.25L39.75,25.25C43.065,25.25 46.245,23.933 48.589,21.589C50.933,19.245 52.25,16.065 52.25,12.75C52.25,9.435 50.933,6.255 48.589,3.911C46.245,1.567 43.065,0.25 39.75,0.25ZM1,42.75C1,39.435 2.317,36.255 4.661,33.911C7.005,31.567 10.185,30.25 13.5,30.25L31,30.25C34.315,30.25 37.495,31.567 39.839,33.911C42.183,36.255 43.5,39.435 43.5,42.75L43.5,47.75L38.5,47.75L38.5,42.75C38.5,40.761 37.71,38.853 36.303,37.447C34.897,36.04 32.989,35.25 31,35.25L13.5,35.25C11.511,35.25 9.603,36.04 8.197,37.447C6.79,38.853 6,40.761 6,42.75L6,47.75L1,47.75L1,42.75ZM61,42.75C61,41.108 60.677,39.483 60.048,37.966C59.42,36.45 58.5,35.072 57.339,33.911C56.178,32.75 54.8,31.83 53.284,31.202C51.767,30.573 50.142,30.25 48.5,30.25L46,30.25L46,35.25L48.5,35.25C50.489,35.25 52.397,36.04 53.803,37.447C55.21,38.853 56,40.761 56,42.75L56,47.75L61,47.75L61,42.75Z" fill="#2F778D"/>
</svg>
