<svg width="48" height="16" viewBox="0 0 48 16" fill="none" xmlns="http://www.w3.org/2000/svg" xmlns:xlink="http://www.w3.org/1999/xlink">
<path d="M21.4,4.293C20.838,3.047 19.947,1.994 18.831,1.256C17.715,0.519 16.421,0.127 15.1,0.127C13.779,0.127 12.485,0.519 11.369,1.256C10.253,1.994 9.362,3.047 8.8,4.293L3,4.293C2.204,4.293 1.441,4.622 0.879,5.208C0.316,5.794 0,6.589 0,7.418L0,7.418C0,8.247 0.316,9.041 0.879,9.627C1.441,10.214 2.204,10.543 3,10.543L8.79,10.543C9.352,11.788 10.243,12.841 11.359,13.579C12.475,14.317 13.769,14.708 15.09,14.708C16.411,14.708 17.705,14.317 18.821,13.579C19.937,12.841 20.828,11.788 21.39,10.543L45,10.543C45.796,10.543 46.559,10.214 47.121,9.627C47.684,9.041 48,8.247 48,7.418C48,6.589 47.684,5.794 47.121,5.208C46.559,4.622 45.796,4.293 45,4.293L21.4,4.293Z" fill="#2F778D"/>
</svg>
