<svg width="30" height="38" viewBox="0 0 30 38" fill="none" xmlns="http://www.w3.org/2000/svg" xmlns:xlink="http://www.w3.org/1999/xlink">
<path d="M13.994,36.77C13.103,36.77 12.343,36.453 11.714,35.82C11.085,35.188 10.77,34.428 10.77,33.54L17.23,33.54C17.23,34.433 16.913,35.195 16.28,35.826C15.645,36.455 14.883,36.77 13.994,36.77ZM1,31.538C0.716,31.538 0.479,31.442 0.288,31.25C0.097,31.058 0.001,30.82 0,30.536C-0.001,30.252 0.095,30.015 0.288,29.824C0.481,29.633 0.719,29.538 1,29.538L3.232,29.538L3.232,13.692C3.232,11.079 4.059,8.781 5.712,6.798C7.365,4.815 9.461,3.58 12,3.092L12,2C12,1.444 12.194,0.972 12.582,0.584C12.97,0.195 13.441,0 13.996,0C14.551,0 15.023,0.195 15.414,0.584C15.805,0.973 16,1.445 16,2L16,2.15C15.711,2.602 15.457,3.057 15.24,3.516C15.023,3.975 14.853,4.463 14.73,4.98L14.374,4.94C14.258,4.929 14.133,4.924 14,4.924C11.569,4.924 9.5,5.777 7.792,7.484C6.084,9.191 5.231,11.26 5.232,13.692L5.232,29.538L22.77,29.538L22.77,17.382C23.087,17.442 23.415,17.489 23.752,17.524C24.089,17.559 24.428,17.563 24.768,17.538L24.768,29.538L27,29.538C27.284,29.538 27.521,29.634 27.712,29.826C27.904,30.018 28,30.256 28,30.54C28,30.824 27.904,31.061 27.712,31.252C27.52,31.443 27.283,31.538 27,31.538L1,31.538ZM23.928,12.808C22.54,12.808 21.359,12.322 20.384,11.35C19.409,10.378 18.923,9.199 18.924,7.812C18.925,6.425 19.411,5.244 20.38,4.268C21.349,3.292 22.529,2.805 23.92,2.808C25.311,2.811 26.491,3.296 27.46,4.264C28.429,5.232 28.917,6.412 28.924,7.804C28.931,9.196 28.445,10.377 27.466,11.346C26.487,12.315 25.307,12.802 23.926,12.806Z" fill="#FFFFFF"/>
</svg>
