<svg width="36" height="36" viewBox="0 0 36 36" fill="none" xmlns="http://www.w3.org/2000/svg" xmlns:xlink="http://www.w3.org/1999/xlink">
<path d="M33.2,36L20.6,23.4C19.6,24.2 18.45,24.833 17.15,25.3C15.85,25.767 14.467,26 13,26C9.367,26 6.292,24.741 3.776,22.224C1.26,19.707 0.001,16.632 0,13C-0.001,9.368 1.257,6.293 3.776,3.776C6.295,1.259 9.369,0 13,0C16.631,0 19.706,1.259 22.226,3.776C24.746,6.293 26.004,9.368 26,13C26,14.467 25.767,15.85 25.3,17.15C24.833,18.45 24.2,19.6 23.4,20.6L36,33.2L33.2,36ZM13,22C15.5,22 17.625,21.125 19.376,19.376C21.127,17.627 22.001,15.501 22,13C21.999,10.499 21.124,8.374 19.376,6.626C17.628,4.878 15.503,4.003 13,4C10.497,3.997 8.373,4.873 6.626,6.626C4.879,8.379 4.004,10.504 4,13C3.996,15.496 4.871,17.621 6.626,19.376C8.381,21.131 10.505,22.005 13,22Z" fill="#2F778D"/>
</svg>
