<svg width="94" height="92" viewBox="0 0 94 92" fill="none" xmlns="http://www.w3.org/2000/svg" xmlns:xlink="http://www.w3.org/1999/xlink">
<path d="M33.489,-0.329L29.452,31.887L38.313,31.887L48.478,1.542L33.489,-0.329ZM52.474,1.327L42.246,31.887L73.239,31.907L80.34,10.664L52.474,1.327ZM29.266,3.53L14.38,5.153L17.299,31.887L25.725,31.887L29.266,3.53ZM5.25,25.676C2.869,25.676 1.279,27.498 0.846,29.237C0.631,30.106 0.753,30.81 0.998,31.204C1.24,31.576 1.575,31.887 2.766,31.887L13.552,31.887L12.869,25.676L5.25,25.676ZM79.243,25.676L77.173,31.887L87.007,31.887C86.468,30.852 86.241,29.754 86.385,28.657C86.53,27.58 86.944,26.607 87.483,25.676L79.243,25.676ZM0.488,35.613L0.488,86.729C0.488,87.785 1.066,89.027 2.014,89.98C2.964,90.932 4.215,91.512 5.25,91.512L84.75,91.532C85.785,91.532 87.027,90.953 87.98,90C88.932,89.048 89.512,87.806 89.512,86.75L89.512,72.051L71.5,72.051C62.391,72.051 62.391,55.074 71.5,55.074L89.512,55.074L89.512,35.634L0.488,35.613ZM71.5,58.801C67.359,58.801 67.359,68.324 71.5,68.324L76.117,68.324C74.253,67.538 72.949,65.695 72.949,63.563C72.949,61.43 74.253,59.588 76.117,58.801L71.5,58.801ZM80.133,58.801C81.996,59.588 83.301,61.43 83.301,63.563C83.301,65.695 81.996,67.538 80.133,68.324L92.824,68.324L92.824,58.801L80.133,58.801ZM78.125,62.113C77.297,62.113 76.676,62.734 76.676,63.563C76.676,64.391 77.297,65.012 78.125,65.012C78.953,65.012 79.574,64.391 79.574,63.563C79.574,62.734 78.953,62.113 78.125,62.113Z" fill="#2F778D"/>
</svg>
