<svg width="64" height="64" viewBox="0 0 64 64" fill="none" xmlns="http://www.w3.org/2000/svg" xmlns:xlink="http://www.w3.org/1999/xlink">
<path d="M48,64L48,57.6L57.6,57.6L57.6,48L64,48L64,59.2C64,60.48 63.36,61.44 62.4,62.4C61.44,63.36 60.16,64 59.2,64L48,64ZM16,64L4.8,64C3.52,64 2.56,63.36 1.6,62.4C0.64,61.44 0,60.16 0,59.2L0,48L6.4,48L6.4,57.6L16,57.6L16,64ZM48,0L59.2,0C60.48,0 61.44,0.64 62.4,1.6C63.36,2.56 64,3.52 64,4.8L64,16L57.6,16L57.6,6.4L48,6.4L48,0ZM16,0L16,6.4L6.4,6.4L6.4,16L0,16L0,4.8C0,3.52 0.64,2.56 1.6,1.6C2.56,0.64 3.52,0 4.8,0L16,0ZM54.4,28.8L9.6,28.8L9.6,35.2L54.4,35.2L54.4,28.8Z" fill="#FFFFFF"/>
</svg>
