<svg width="642" height="618" viewBox="0 0 642 618" fill="none" xmlns="http://www.w3.org/2000/svg" xmlns:xlink="http://www.w3.org/1999/xlink">
<path d="M100.25,38.6C84.297,38.6 68.998,44.7 57.718,55.559C46.437,66.417 40.1,81.144 40.1,96.5L40.1,173.7C40.1,178.819 37.988,183.728 34.227,187.347C30.467,190.967 25.368,193 20.05,193C14.732,193 9.633,190.967 5.873,187.347C2.112,183.728 0,178.819 0,173.7L0,96.5C0,70.907 10.562,46.361 29.363,28.264C48.163,10.167 73.662,0 100.25,0L180.45,0C185.768,0 190.867,2.033 194.627,5.653C198.388,9.272 200.5,14.181 200.5,19.3C200.5,24.419 198.388,29.328 194.627,32.947C190.867,36.567 185.768,38.6 180.45,38.6L100.25,38.6ZM100.25,579C84.297,579 68.998,572.9 57.718,562.042C46.437,551.184 40.1,536.456 40.1,521.1L40.1,443.9C40.1,438.782 37.988,433.872 34.227,430.252C30.467,426.634 25.368,424.6 20.05,424.6C14.732,424.6 9.633,426.634 5.873,430.252C2.112,433.872 0,438.782 0,443.9L0,521.1C0,546.694 10.562,571.238 29.363,589.336C48.163,607.434 73.662,617.6 100.25,617.6L180.45,617.6C185.768,617.6 190.867,615.566 194.627,611.948C198.388,608.328 200.5,603.418 200.5,598.3C200.5,593.182 198.388,588.272 194.627,584.652C190.867,581.034 185.768,579 180.45,579L100.25,579ZM601.5,96.5C601.5,81.144 595.162,66.417 583.882,55.559C572.602,44.7 557.302,38.6 541.35,38.6L461.15,38.6C455.832,38.6 450.732,36.567 446.972,32.947C443.212,29.328 441.1,24.419 441.1,19.3C441.1,14.181 443.212,9.272 446.972,5.653C450.732,2.033 455.832,0 461.15,0L541.35,0C567.938,0 593.436,10.167 612.238,28.264C631.038,46.361 641.6,70.907 641.6,96.5L641.6,173.7C641.6,178.819 639.488,183.728 635.728,187.347C631.968,190.967 626.868,193 621.55,193C616.232,193 611.132,190.967 607.372,187.347C603.612,183.728 601.5,178.819 601.5,173.7L601.5,96.5ZM541.35,579C557.302,579 572.602,572.9 583.882,562.042C595.162,551.184 601.5,536.456 601.5,521.1L601.5,443.9C601.5,438.782 603.612,433.872 607.372,430.252C611.132,426.634 616.232,424.6 621.55,424.6C626.868,424.6 631.968,426.634 635.728,430.252C639.488,433.872 641.6,438.782 641.6,443.9L641.6,521.1C641.6,546.694 631.038,571.238 612.238,589.336C593.436,607.434 567.938,617.6 541.35,617.6L461.15,617.6C455.832,617.6 450.732,615.566 446.972,611.948C443.212,608.328 441.1,603.418 441.1,598.3C441.1,593.182 443.212,588.272 446.972,584.652C450.732,581.034 455.832,579 461.15,579L541.35,579ZM160.4,308.8C160.4,303.682 162.512,298.772 166.273,295.152C170.033,291.534 175.132,289.5 180.45,289.5L461.15,289.5C466.468,289.5 471.568,291.534 475.328,295.152C479.088,298.772 481.2,303.682 481.2,308.8C481.2,313.918 479.088,318.828 475.328,322.448C471.568,326.066 466.468,328.1 461.15,328.1L180.45,328.1C175.132,328.1 170.033,326.066 166.273,322.448C162.512,318.828 160.4,313.918 160.4,308.8Z" fill="#46A6C5"/>
</svg>
